<mxfile host="app.diagrams.net" modified="2021-08-09T00:53:53.311Z" agent="5.0 (Windows NT 10.0; Win64; x64) AppleWebKit/537.36 (KHTML, like Gecko) Chrome/92.0.4515.131 Safari/537.36" etag="swZuoqF6LO1vPZKLSumJ" version="14.9.4" type="github" pages="3">
  <diagram id="lw_BKq-Z7vaauvx5cdLd" name="Page-1">
    <mxGraphModel dx="1609" dy="402" grid="1" gridSize="10" guides="1" tooltips="1" connect="1" arrows="1" fold="1" page="1" pageScale="1" pageWidth="827" pageHeight="1169" math="0" shadow="0">
      <root>
        <mxCell id="0" />
        <mxCell id="1" parent="0" />
        <mxCell id="-aBtthjY4AyPOvWZp1uT-6" value="" style="ellipse;shape=cloud;whiteSpace=wrap;html=1;" parent="1" vertex="1">
          <mxGeometry x="-10" y="90" width="230" height="170" as="geometry" />
        </mxCell>
        <mxCell id="-aBtthjY4AyPOvWZp1uT-8" value="" style="ellipse;shape=cloud;whiteSpace=wrap;html=1;" parent="1" vertex="1">
          <mxGeometry x="597" y="90" width="230" height="170" as="geometry" />
        </mxCell>
        <mxCell id="-aBtthjY4AyPOvWZp1uT-18" value="" style="rounded=1;whiteSpace=wrap;html=1;" parent="1" vertex="1">
          <mxGeometry x="350" y="10" width="60" height="90" as="geometry" />
        </mxCell>
        <mxCell id="-aBtthjY4AyPOvWZp1uT-19" value="用户终端1" style="text;html=1;strokeColor=none;fillColor=none;align=center;verticalAlign=middle;whiteSpace=wrap;rounded=0;" parent="1" vertex="1">
          <mxGeometry x="350" y="10" width="60" height="20" as="geometry" />
        </mxCell>
        <mxCell id="-aBtthjY4AyPOvWZp1uT-20" value="" style="endArrow=none;html=1;exitX=0;exitY=1;exitDx=0;exitDy=0;entryX=1;entryY=1;entryDx=0;entryDy=0;" parent="1" source="-aBtthjY4AyPOvWZp1uT-19" target="-aBtthjY4AyPOvWZp1uT-19" edge="1">
          <mxGeometry width="50" height="50" relative="1" as="geometry">
            <mxPoint x="390" y="50" as="sourcePoint" />
            <mxPoint x="440" as="targetPoint" />
          </mxGeometry>
        </mxCell>
        <mxCell id="-aBtthjY4AyPOvWZp1uT-22" value="" style="ellipse;whiteSpace=wrap;html=1;aspect=fixed;fillColor=#f8cecc;strokeColor=#b85450;" parent="1" vertex="1">
          <mxGeometry x="350" y="60" width="10" height="10" as="geometry" />
        </mxCell>
        <mxCell id="-aBtthjY4AyPOvWZp1uT-24" value="" style="verticalLabelPosition=bottom;verticalAlign=top;html=1;shape=mxgraph.basic.arc;startAngle=0.9211305016072695;endAngle=0.7468173254495136;dashed=1;strokeWidth=0;" parent="1" vertex="1">
          <mxGeometry x="360" y="47.5" width="40" height="35" as="geometry" />
        </mxCell>
        <mxCell id="-aBtthjY4AyPOvWZp1uT-25" value="" style="ellipse;whiteSpace=wrap;html=1;aspect=fixed;fillColor=#d5e8d4;strokeColor=#82b366;" parent="1" vertex="1">
          <mxGeometry x="400" y="60" width="10" height="10" as="geometry" />
        </mxCell>
        <mxCell id="-aBtthjY4AyPOvWZp1uT-26" value="" style="ellipse;whiteSpace=wrap;html=1;aspect=fixed;fillColor=#d5e8d4;strokeColor=#82b366;" parent="1" vertex="1">
          <mxGeometry x="375" y="37.5" width="10" height="10" as="geometry" />
        </mxCell>
        <mxCell id="-aBtthjY4AyPOvWZp1uT-27" value="" style="endArrow=classic;html=1;dashed=1;exitX=0.428;exitY=0.989;exitDx=0;exitDy=0;exitPerimeter=0;entryX=0.595;entryY=0.995;entryDx=0;entryDy=0;entryPerimeter=0;strokeWidth=0;" parent="1" source="-aBtthjY4AyPOvWZp1uT-24" target="-aBtthjY4AyPOvWZp1uT-24" edge="1">
          <mxGeometry width="50" height="50" relative="1" as="geometry">
            <mxPoint x="385" y="90" as="sourcePoint" />
            <mxPoint x="395" y="80" as="targetPoint" />
          </mxGeometry>
        </mxCell>
        <mxCell id="-aBtthjY4AyPOvWZp1uT-28" value="" style="rounded=1;whiteSpace=wrap;html=1;" parent="1" vertex="1">
          <mxGeometry x="350" y="240" width="60" height="90" as="geometry" />
        </mxCell>
        <mxCell id="-aBtthjY4AyPOvWZp1uT-29" value="用户终端n" style="text;html=1;strokeColor=none;fillColor=none;align=center;verticalAlign=middle;whiteSpace=wrap;rounded=0;" parent="1" vertex="1">
          <mxGeometry x="350" y="240" width="60" height="20" as="geometry" />
        </mxCell>
        <mxCell id="-aBtthjY4AyPOvWZp1uT-30" value="" style="endArrow=none;html=1;exitX=0;exitY=1;exitDx=0;exitDy=0;entryX=1;entryY=1;entryDx=0;entryDy=0;" parent="1" source="-aBtthjY4AyPOvWZp1uT-29" target="-aBtthjY4AyPOvWZp1uT-29" edge="1">
          <mxGeometry width="50" height="50" relative="1" as="geometry">
            <mxPoint x="390" y="280" as="sourcePoint" />
            <mxPoint x="440" y="230" as="targetPoint" />
          </mxGeometry>
        </mxCell>
        <mxCell id="-aBtthjY4AyPOvWZp1uT-31" value="" style="ellipse;whiteSpace=wrap;html=1;aspect=fixed;fillColor=#f8cecc;strokeColor=#b85450;" parent="1" vertex="1">
          <mxGeometry x="350" y="290" width="10" height="10" as="geometry" />
        </mxCell>
        <mxCell id="-aBtthjY4AyPOvWZp1uT-32" value="" style="verticalLabelPosition=bottom;verticalAlign=top;html=1;shape=mxgraph.basic.arc;startAngle=0.9211305016072695;endAngle=0.7468173254495136;dashed=1;strokeWidth=0;" parent="1" vertex="1">
          <mxGeometry x="360" y="277.5" width="40" height="35" as="geometry" />
        </mxCell>
        <mxCell id="-aBtthjY4AyPOvWZp1uT-33" value="" style="ellipse;whiteSpace=wrap;html=1;aspect=fixed;fillColor=#d5e8d4;strokeColor=#82b366;" parent="1" vertex="1">
          <mxGeometry x="400" y="290" width="10" height="10" as="geometry" />
        </mxCell>
        <mxCell id="-aBtthjY4AyPOvWZp1uT-35" value="" style="endArrow=classic;html=1;dashed=1;exitX=0.428;exitY=0.989;exitDx=0;exitDy=0;exitPerimeter=0;entryX=0.595;entryY=0.995;entryDx=0;entryDy=0;entryPerimeter=0;strokeWidth=0;" parent="1" source="-aBtthjY4AyPOvWZp1uT-32" target="-aBtthjY4AyPOvWZp1uT-32" edge="1">
          <mxGeometry width="50" height="50" relative="1" as="geometry">
            <mxPoint x="385" y="320" as="sourcePoint" />
            <mxPoint x="395" y="310" as="targetPoint" />
          </mxGeometry>
        </mxCell>
        <mxCell id="-aBtthjY4AyPOvWZp1uT-36" value="" style="ellipse;whiteSpace=wrap;html=1;aspect=fixed;fillColor=#d5e8d4;strokeColor=#82b366;" parent="1" vertex="1">
          <mxGeometry x="375" y="267.5" width="10" height="10" as="geometry" />
        </mxCell>
        <mxCell id="-aBtthjY4AyPOvWZp1uT-37" value="" style="endArrow=none;dashed=1;html=1;dashPattern=1 4;strokeWidth=4;" parent="1" edge="1">
          <mxGeometry width="50" height="50" relative="1" as="geometry">
            <mxPoint x="380" y="200" as="sourcePoint" />
            <mxPoint x="380" y="120" as="targetPoint" />
          </mxGeometry>
        </mxCell>
        <mxCell id="-aBtthjY4AyPOvWZp1uT-38" value="" style="endArrow=classic;html=1;strokeWidth=1;entryX=0.006;entryY=0.652;entryDx=0;entryDy=0;entryPerimeter=0;" parent="1" target="-aBtthjY4AyPOvWZp1uT-18" edge="1">
          <mxGeometry width="50" height="50" relative="1" as="geometry">
            <mxPoint x="192" y="175" as="sourcePoint" />
            <mxPoint x="310" y="170" as="targetPoint" />
          </mxGeometry>
        </mxCell>
        <mxCell id="-aBtthjY4AyPOvWZp1uT-39" value="" style="endArrow=classic;html=1;strokeWidth=1;exitX=0.875;exitY=0.5;exitDx=0;exitDy=0;exitPerimeter=0;entryX=0;entryY=0.5;entryDx=0;entryDy=0;" parent="1" source="-aBtthjY4AyPOvWZp1uT-6" target="-aBtthjY4AyPOvWZp1uT-31" edge="1">
          <mxGeometry width="50" height="50" relative="1" as="geometry">
            <mxPoint x="260" y="220" as="sourcePoint" />
            <mxPoint x="310" y="170" as="targetPoint" />
          </mxGeometry>
        </mxCell>
        <mxCell id="-aBtthjY4AyPOvWZp1uT-40" value="" style="endArrow=classic;html=1;strokeWidth=1;entryX=0.198;entryY=0.253;entryDx=0;entryDy=0;entryPerimeter=0;" parent="1" target="-aBtthjY4AyPOvWZp1uT-8" edge="1">
          <mxGeometry width="50" height="50" relative="1" as="geometry">
            <mxPoint x="410" y="66" as="sourcePoint" />
            <mxPoint x="430" y="170" as="targetPoint" />
          </mxGeometry>
        </mxCell>
        <mxCell id="-aBtthjY4AyPOvWZp1uT-41" value="" style="endArrow=classic;html=1;strokeWidth=1;exitX=1;exitY=1;exitDx=0;exitDy=0;entryX=0;entryY=1;entryDx=0;entryDy=0;" parent="1" source="-aBtthjY4AyPOvWZp1uT-33" target="-aBtthjY4AyPOvWZp1uT-42" edge="1">
          <mxGeometry width="50" height="50" relative="1" as="geometry">
            <mxPoint x="380" y="220" as="sourcePoint" />
            <mxPoint x="430" y="170" as="targetPoint" />
          </mxGeometry>
        </mxCell>
        <mxCell id="-aBtthjY4AyPOvWZp1uT-42" value="" style="ellipse;whiteSpace=wrap;html=1;aspect=fixed;fillColor=#d5e8d4;strokeColor=#82b366;" parent="1" vertex="1">
          <mxGeometry x="640" y="220" width="10" height="10" as="geometry" />
        </mxCell>
        <mxCell id="-aBtthjY4AyPOvWZp1uT-43" value="" style="ellipse;whiteSpace=wrap;html=1;aspect=fixed;fillColor=#d5e8d4;strokeColor=#82b366;" parent="1" vertex="1">
          <mxGeometry x="640" y="134" width="10" height="10" as="geometry" />
        </mxCell>
        <mxCell id="-aBtthjY4AyPOvWZp1uT-46" value="公共模型分发服务" style="text;html=1;strokeColor=none;fillColor=none;align=center;verticalAlign=middle;whiteSpace=wrap;rounded=0;dashed=1;" parent="1" vertex="1">
          <mxGeometry x="50" y="134" width="110" height="20" as="geometry" />
        </mxCell>
        <mxCell id="-aBtthjY4AyPOvWZp1uT-47" value="模型聚合服务" style="text;html=1;align=center;verticalAlign=middle;resizable=0;points=[];autosize=1;strokeColor=none;" parent="1" vertex="1">
          <mxGeometry x="680" y="134" width="90" height="20" as="geometry" />
        </mxCell>
        <mxCell id="-aBtthjY4AyPOvWZp1uT-67" value="" style="edgeStyle=orthogonalEdgeStyle;rounded=0;orthogonalLoop=1;jettySize=auto;html=1;strokeWidth=0;" parent="1" source="-aBtthjY4AyPOvWZp1uT-49" target="-aBtthjY4AyPOvWZp1uT-63" edge="1">
          <mxGeometry relative="1" as="geometry" />
        </mxCell>
        <mxCell id="-aBtthjY4AyPOvWZp1uT-49" value="" style="ellipse;whiteSpace=wrap;html=1;aspect=fixed;fillColor=#f8cecc;strokeColor=#b85450;" parent="1" vertex="1">
          <mxGeometry x="110" y="171" width="10" height="10" as="geometry" />
        </mxCell>
        <mxCell id="-aBtthjY4AyPOvWZp1uT-51" value="" style="endArrow=none;dashed=1;html=1;dashPattern=1 4;strokeWidth=2;" parent="1" edge="1">
          <mxGeometry width="50" height="50" relative="1" as="geometry">
            <mxPoint x="645" y="192" as="sourcePoint" />
            <mxPoint x="645" y="162" as="targetPoint" />
          </mxGeometry>
        </mxCell>
        <mxCell id="-aBtthjY4AyPOvWZp1uT-52" value="" style="shape=curlyBracket;whiteSpace=wrap;html=1;rounded=1;flipH=1;size=0.5;strokeWidth=0;" parent="1" vertex="1">
          <mxGeometry x="650" y="140" width="30" height="84" as="geometry" />
        </mxCell>
        <mxCell id="-aBtthjY4AyPOvWZp1uT-53" value="" style="line;strokeWidth=0;html=1;" parent="1" vertex="1">
          <mxGeometry x="670" y="177" width="140" height="10" as="geometry" />
        </mxCell>
        <mxCell id="-aBtthjY4AyPOvWZp1uT-54" value="" style="ellipse;whiteSpace=wrap;html=1;aspect=fixed;fillColor=#f8cecc;strokeColor=#b85450;" parent="1" vertex="1">
          <mxGeometry x="796" y="177" width="10" height="10" as="geometry" />
        </mxCell>
        <mxCell id="-aBtthjY4AyPOvWZp1uT-55" value="" style="edgeStyle=segmentEdgeStyle;endArrow=classic;html=1;strokeWidth=1;exitX=1;exitY=0.5;exitDx=0;exitDy=0;entryX=0.55;entryY=0.95;entryDx=0;entryDy=0;entryPerimeter=0;" parent="1" source="-aBtthjY4AyPOvWZp1uT-54" target="-aBtthjY4AyPOvWZp1uT-6" edge="1">
          <mxGeometry width="50" height="50" relative="1" as="geometry">
            <mxPoint x="620" y="190" as="sourcePoint" />
            <mxPoint x="120" y="400" as="targetPoint" />
            <Array as="points">
              <mxPoint x="830" y="182" />
              <mxPoint x="830" y="350" />
              <mxPoint x="117" y="350" />
            </Array>
          </mxGeometry>
        </mxCell>
        <mxCell id="-aBtthjY4AyPOvWZp1uT-66" value="" style="edgeStyle=orthogonalEdgeStyle;rounded=0;orthogonalLoop=1;jettySize=auto;html=1;strokeWidth=0;" parent="1" source="-aBtthjY4AyPOvWZp1uT-62" target="-aBtthjY4AyPOvWZp1uT-49" edge="1">
          <mxGeometry relative="1" as="geometry" />
        </mxCell>
        <mxCell id="-aBtthjY4AyPOvWZp1uT-62" value="" style="ellipse;whiteSpace=wrap;html=1;aspect=fixed;fillColor=#f8cecc;strokeColor=#b85450;" parent="1" vertex="1">
          <mxGeometry x="110" y="240" width="10" height="10" as="geometry" />
        </mxCell>
        <mxCell id="-aBtthjY4AyPOvWZp1uT-63" value="" style="ellipse;whiteSpace=wrap;html=1;aspect=fixed;fillColor=#f8cecc;strokeColor=#b85450;" parent="1" vertex="1">
          <mxGeometry x="180" y="171" width="10" height="10" as="geometry" />
        </mxCell>
      </root>
    </mxGraphModel>
  </diagram>
  <diagram id="RDb2Xtg77VVxKO0PDFK7" name="Page-2">
    <mxGraphModel dx="3128" dy="2553" grid="1" gridSize="10" guides="1" tooltips="1" connect="1" arrows="1" fold="1" page="1" pageScale="1" pageWidth="827" pageHeight="1169" math="0" shadow="0">
      <root>
        <mxCell id="X2xUYbTaW2RFnHhkHbOs-0" />
        <mxCell id="X2xUYbTaW2RFnHhkHbOs-1" parent="X2xUYbTaW2RFnHhkHbOs-0" />
        <mxCell id="Ix2IZgxNbcKbS14ej8tI-0" value="" style="ellipse;shape=cloud;whiteSpace=wrap;html=1;strokeWidth=1;fontSize=12;" vertex="1" parent="X2xUYbTaW2RFnHhkHbOs-1">
          <mxGeometry x="270" y="-210" width="330" height="260" as="geometry" />
        </mxCell>
        <mxCell id="Ix2IZgxNbcKbS14ej8tI-3" value="密钥对分发" style="text;html=1;strokeColor=none;fillColor=none;align=center;verticalAlign=middle;whiteSpace=wrap;rounded=0;strokeWidth=1;fontSize=12;" vertex="1" parent="X2xUYbTaW2RFnHhkHbOs-1">
          <mxGeometry x="425" y="10" width="40" height="20" as="geometry" />
        </mxCell>
        <mxCell id="Ix2IZgxNbcKbS14ej8tI-9" value="&lt;font size=&quot;1&quot;&gt;&lt;b style=&quot;font-size: 14px&quot;&gt;学习服务端&lt;/b&gt;&lt;/font&gt;" style="text;html=1;strokeColor=none;fillColor=none;align=center;verticalAlign=middle;whiteSpace=wrap;rounded=0;strokeWidth=1;fontSize=12;" vertex="1" parent="X2xUYbTaW2RFnHhkHbOs-1">
          <mxGeometry x="354" y="-160" width="120" height="20" as="geometry" />
        </mxCell>
        <mxCell id="Ix2IZgxNbcKbS14ej8tI-16" value="" style="group;strokeWidth=1;fontSize=12;" vertex="1" connectable="0" parent="X2xUYbTaW2RFnHhkHbOs-1">
          <mxGeometry x="70" y="220" width="200" height="130" as="geometry" />
        </mxCell>
        <mxCell id="Ix2IZgxNbcKbS14ej8tI-11" value="" style="rounded=0;whiteSpace=wrap;html=1;strokeWidth=1;fontSize=12;" vertex="1" parent="Ix2IZgxNbcKbS14ej8tI-16">
          <mxGeometry width="200" height="130" as="geometry" />
        </mxCell>
        <mxCell id="Ix2IZgxNbcKbS14ej8tI-7" value="计算梯度" style="rounded=1;whiteSpace=wrap;html=1;strokeWidth=1;fontSize=12;" vertex="1" parent="Ix2IZgxNbcKbS14ej8tI-16">
          <mxGeometry x="70" y="30" width="50" height="30" as="geometry" />
        </mxCell>
        <mxCell id="Ix2IZgxNbcKbS14ej8tI-12" value="" style="shape=cylinder3;whiteSpace=wrap;html=1;boundedLbl=1;backgroundOutline=1;size=15;strokeWidth=1;fontSize=12;" vertex="1" parent="Ix2IZgxNbcKbS14ej8tI-16">
          <mxGeometry x="65" y="80" width="60" height="40" as="geometry" />
        </mxCell>
        <mxCell id="Ix2IZgxNbcKbS14ej8tI-26" value="" style="edgeStyle=orthogonalEdgeStyle;rounded=0;orthogonalLoop=1;jettySize=auto;html=1;strokeWidth=1;fontSize=12;" edge="1" parent="Ix2IZgxNbcKbS14ej8tI-16" source="Ix2IZgxNbcKbS14ej8tI-13" target="Ix2IZgxNbcKbS14ej8tI-7">
          <mxGeometry relative="1" as="geometry" />
        </mxCell>
        <mxCell id="Ix2IZgxNbcKbS14ej8tI-13" value="数据源1" style="text;html=1;strokeColor=none;fillColor=none;align=center;verticalAlign=middle;whiteSpace=wrap;rounded=0;strokeWidth=1;fontSize=12;" vertex="1" parent="Ix2IZgxNbcKbS14ej8tI-16">
          <mxGeometry x="70" y="80" width="50" height="20" as="geometry" />
        </mxCell>
        <mxCell id="Ix2IZgxNbcKbS14ej8tI-14" value="&lt;font style=&quot;font-size: 15px&quot;&gt;&lt;b&gt;企业1&lt;/b&gt;&lt;/font&gt;" style="text;html=1;strokeColor=none;fillColor=none;align=center;verticalAlign=middle;whiteSpace=wrap;rounded=0;strokeWidth=1;fontSize=12;" vertex="1" parent="Ix2IZgxNbcKbS14ej8tI-16">
          <mxGeometry width="50" height="20" as="geometry" />
        </mxCell>
        <mxCell id="Ix2IZgxNbcKbS14ej8tI-18" value="" style="group;strokeWidth=1;fontSize=12;" vertex="1" connectable="0" parent="X2xUYbTaW2RFnHhkHbOs-1">
          <mxGeometry x="600" y="220" width="200" height="130" as="geometry" />
        </mxCell>
        <mxCell id="Ix2IZgxNbcKbS14ej8tI-19" value="" style="rounded=0;whiteSpace=wrap;html=1;strokeWidth=1;fontSize=12;" vertex="1" parent="Ix2IZgxNbcKbS14ej8tI-18">
          <mxGeometry width="200" height="130" as="geometry" />
        </mxCell>
        <mxCell id="Ix2IZgxNbcKbS14ej8tI-20" value="计算梯度" style="rounded=1;whiteSpace=wrap;html=1;strokeWidth=1;fontSize=12;" vertex="1" parent="Ix2IZgxNbcKbS14ej8tI-18">
          <mxGeometry x="70" y="30" width="50" height="30" as="geometry" />
        </mxCell>
        <mxCell id="Ix2IZgxNbcKbS14ej8tI-21" value="" style="shape=cylinder3;whiteSpace=wrap;html=1;boundedLbl=1;backgroundOutline=1;size=15;strokeWidth=1;fontSize=12;" vertex="1" parent="Ix2IZgxNbcKbS14ej8tI-18">
          <mxGeometry x="65" y="80" width="60" height="40" as="geometry" />
        </mxCell>
        <mxCell id="Ix2IZgxNbcKbS14ej8tI-27" value="" style="edgeStyle=orthogonalEdgeStyle;rounded=0;orthogonalLoop=1;jettySize=auto;html=1;strokeWidth=1;fontSize=12;" edge="1" parent="Ix2IZgxNbcKbS14ej8tI-18" source="Ix2IZgxNbcKbS14ej8tI-22" target="Ix2IZgxNbcKbS14ej8tI-20">
          <mxGeometry relative="1" as="geometry" />
        </mxCell>
        <mxCell id="Ix2IZgxNbcKbS14ej8tI-22" value="数据源n" style="text;html=1;strokeColor=none;fillColor=none;align=center;verticalAlign=middle;whiteSpace=wrap;rounded=0;strokeWidth=1;fontSize=12;" vertex="1" parent="Ix2IZgxNbcKbS14ej8tI-18">
          <mxGeometry x="70" y="80" width="50" height="20" as="geometry" />
        </mxCell>
        <mxCell id="Ix2IZgxNbcKbS14ej8tI-23" value="&lt;font style=&quot;font-size: 14px&quot;&gt;&lt;b&gt;企业n&lt;/b&gt;&lt;/font&gt;" style="text;html=1;strokeColor=none;fillColor=none;align=center;verticalAlign=middle;whiteSpace=wrap;rounded=0;strokeWidth=1;fontSize=12;" vertex="1" parent="Ix2IZgxNbcKbS14ej8tI-18">
          <mxGeometry width="40" height="20" as="geometry" />
        </mxCell>
        <mxCell id="Ix2IZgxNbcKbS14ej8tI-24" value="" style="endArrow=classic;html=1;exitX=0.5;exitY=1;exitDx=0;exitDy=0;entryX=0.793;entryY=-0.013;entryDx=0;entryDy=0;entryPerimeter=0;strokeWidth=1;fontSize=12;" edge="1" parent="X2xUYbTaW2RFnHhkHbOs-1" source="Ix2IZgxNbcKbS14ej8tI-3" target="Ix2IZgxNbcKbS14ej8tI-11">
          <mxGeometry width="50" height="50" relative="1" as="geometry">
            <mxPoint x="390" y="190" as="sourcePoint" />
            <mxPoint x="440" y="140" as="targetPoint" />
          </mxGeometry>
        </mxCell>
        <mxCell id="Ix2IZgxNbcKbS14ej8tI-25" value="" style="endArrow=classic;html=1;exitX=0.5;exitY=1;exitDx=0;exitDy=0;entryX=0.197;entryY=-0.003;entryDx=0;entryDy=0;entryPerimeter=0;strokeWidth=1;fontSize=12;" edge="1" parent="X2xUYbTaW2RFnHhkHbOs-1" source="Ix2IZgxNbcKbS14ej8tI-3" target="Ix2IZgxNbcKbS14ej8tI-19">
          <mxGeometry width="50" height="50" relative="1" as="geometry">
            <mxPoint x="390" y="180" as="sourcePoint" />
            <mxPoint x="656" y="216" as="targetPoint" />
          </mxGeometry>
        </mxCell>
        <mxCell id="Ix2IZgxNbcKbS14ej8tI-28" value="" style="endArrow=classic;html=1;exitX=0.5;exitY=0;exitDx=0;exitDy=0;entryX=0.151;entryY=0.776;entryDx=0;entryDy=0;entryPerimeter=0;strokeWidth=1;fontSize=12;" edge="1" parent="X2xUYbTaW2RFnHhkHbOs-1" source="Ix2IZgxNbcKbS14ej8tI-7" target="Ix2IZgxNbcKbS14ej8tI-0">
          <mxGeometry width="50" height="50" relative="1" as="geometry">
            <mxPoint x="620" y="200" as="sourcePoint" />
            <mxPoint x="670" y="150" as="targetPoint" />
          </mxGeometry>
        </mxCell>
        <mxCell id="Ix2IZgxNbcKbS14ej8tI-30" value="" style="endArrow=classic;html=1;entryX=0.91;entryY=0.773;entryDx=0;entryDy=0;entryPerimeter=0;strokeWidth=1;fontSize=12;" edge="1" parent="X2xUYbTaW2RFnHhkHbOs-1" source="Ix2IZgxNbcKbS14ej8tI-20" target="Ix2IZgxNbcKbS14ej8tI-0">
          <mxGeometry width="50" height="50" relative="1" as="geometry">
            <mxPoint x="620" y="200" as="sourcePoint" />
            <mxPoint x="670" y="150" as="targetPoint" />
          </mxGeometry>
        </mxCell>
        <mxCell id="Ix2IZgxNbcKbS14ej8tI-34" value="" style="edgeStyle=orthogonalEdgeStyle;rounded=0;orthogonalLoop=1;jettySize=auto;html=1;strokeWidth=1;fontSize=12;" edge="1" parent="X2xUYbTaW2RFnHhkHbOs-1" source="Ix2IZgxNbcKbS14ej8tI-31" target="Ix2IZgxNbcKbS14ej8tI-33">
          <mxGeometry relative="1" as="geometry" />
        </mxCell>
        <mxCell id="Ix2IZgxNbcKbS14ej8tI-31" value="解密聚合" style="rounded=0;whiteSpace=wrap;html=1;strokeWidth=1;fontSize=12;" vertex="1" parent="X2xUYbTaW2RFnHhkHbOs-1">
          <mxGeometry x="320" y="-30" width="250" height="20" as="geometry" />
        </mxCell>
        <mxCell id="Ix2IZgxNbcKbS14ej8tI-33" value="更新模型" style="rounded=0;whiteSpace=wrap;html=1;strokeWidth=1;fontSize=12;" vertex="1" parent="X2xUYbTaW2RFnHhkHbOs-1">
          <mxGeometry x="333.75" y="-80" width="222.5" height="20" as="geometry" />
        </mxCell>
        <mxCell id="Ix2IZgxNbcKbS14ej8tI-35" value="" style="endArrow=classic;html=1;exitX=0;exitY=0.5;exitDx=0;exitDy=0;entryX=0.158;entryY=-0.03;entryDx=0;entryDy=0;entryPerimeter=0;strokeWidth=1;fontSize=12;" edge="1" parent="X2xUYbTaW2RFnHhkHbOs-1" source="Ix2IZgxNbcKbS14ej8tI-33" target="Ix2IZgxNbcKbS14ej8tI-11">
          <mxGeometry width="50" height="50" relative="1" as="geometry">
            <mxPoint x="-20" y="20" as="sourcePoint" />
            <mxPoint x="30" y="-30" as="targetPoint" />
          </mxGeometry>
        </mxCell>
        <mxCell id="Ix2IZgxNbcKbS14ej8tI-36" value="" style="endArrow=classic;html=1;exitX=1;exitY=0.5;exitDx=0;exitDy=0;entryX=0.81;entryY=0.01;entryDx=0;entryDy=0;entryPerimeter=0;strokeWidth=1;fontSize=12;" edge="1" parent="X2xUYbTaW2RFnHhkHbOs-1" source="Ix2IZgxNbcKbS14ej8tI-33" target="Ix2IZgxNbcKbS14ej8tI-19">
          <mxGeometry width="50" height="50" relative="1" as="geometry">
            <mxPoint x="380" y="-60" as="sourcePoint" />
            <mxPoint x="430" y="-110" as="targetPoint" />
          </mxGeometry>
        </mxCell>
        <mxCell id="h8pJoT9uivze-w5bYaVZ-0" value="" style="endArrow=none;dashed=1;html=1;dashPattern=1 4;strokeWidth=8;" edge="1" parent="X2xUYbTaW2RFnHhkHbOs-1">
          <mxGeometry width="50" height="50" relative="1" as="geometry">
            <mxPoint x="520" y="290" as="sourcePoint" />
            <mxPoint x="360" y="290" as="targetPoint" />
          </mxGeometry>
        </mxCell>
      </root>
    </mxGraphModel>
  </diagram>
  <diagram id="3jvV1hHwvHM1cchowCSP" name="Page-3">
    <mxGraphModel dx="2625" dy="2274" grid="1" gridSize="10" guides="1" tooltips="1" connect="1" arrows="1" fold="1" page="1" pageScale="1" pageWidth="827" pageHeight="1169" math="0" shadow="0">
      <root>
        <mxCell id="5NJUwFi0pcYqgys8b8MI-0" />
        <mxCell id="5NJUwFi0pcYqgys8b8MI-1" parent="5NJUwFi0pcYqgys8b8MI-0" />
        <mxCell id="5NJUwFi0pcYqgys8b8MI-2" value="" style="ellipse;shape=cloud;whiteSpace=wrap;html=1;strokeWidth=1;fontSize=18;" vertex="1" parent="5NJUwFi0pcYqgys8b8MI-1">
          <mxGeometry x="270" y="-210" width="330" height="260" as="geometry" />
        </mxCell>
        <mxCell id="5NJUwFi0pcYqgys8b8MI-4" value="&lt;font style=&quot;font-size: 18px;&quot;&gt;&lt;b style=&quot;font-size: 18px;&quot;&gt;学习服务端&lt;/b&gt;&lt;/font&gt;" style="text;html=1;strokeColor=none;fillColor=none;align=center;verticalAlign=middle;whiteSpace=wrap;rounded=0;strokeWidth=1;fontSize=18;" vertex="1" parent="5NJUwFi0pcYqgys8b8MI-1">
          <mxGeometry x="354" y="-160" width="120" height="20" as="geometry" />
        </mxCell>
        <mxCell id="5NJUwFi0pcYqgys8b8MI-5" value="" style="group;strokeWidth=1;fontSize=18;" vertex="1" connectable="0" parent="5NJUwFi0pcYqgys8b8MI-1">
          <mxGeometry x="-40" y="220" width="310" height="130" as="geometry" />
        </mxCell>
        <mxCell id="5NJUwFi0pcYqgys8b8MI-6" value="" style="rounded=0;whiteSpace=wrap;html=1;strokeWidth=1;fontSize=18;" vertex="1" parent="5NJUwFi0pcYqgys8b8MI-5">
          <mxGeometry width="310" height="130" as="geometry" />
        </mxCell>
        <mxCell id="5NJUwFi0pcYqgys8b8MI-7" value="实体对齐" style="rounded=1;whiteSpace=wrap;html=1;strokeWidth=1;fontSize=18;" vertex="1" parent="5NJUwFi0pcYqgys8b8MI-5">
          <mxGeometry x="140" y="30" width="84.75" height="30" as="geometry" />
        </mxCell>
        <mxCell id="5NJUwFi0pcYqgys8b8MI-8" value="" style="shape=cylinder3;whiteSpace=wrap;html=1;boundedLbl=1;backgroundOutline=1;size=15;strokeWidth=1;fontSize=18;" vertex="1" parent="5NJUwFi0pcYqgys8b8MI-5">
          <mxGeometry x="62" y="80" width="170.5" height="40" as="geometry" />
        </mxCell>
        <mxCell id="5NJUwFi0pcYqgys8b8MI-10" style="edgeStyle=orthogonalEdgeStyle;rounded=0;orthogonalLoop=1;jettySize=auto;html=1;fontSize=18;" edge="1" parent="5NJUwFi0pcYqgys8b8MI-5" source="5NJUwFi0pcYqgys8b8MI-11" target="5NJUwFi0pcYqgys8b8MI-7">
          <mxGeometry relative="1" as="geometry">
            <Array as="points">
              <mxPoint x="182" y="80" />
              <mxPoint x="182" y="80" />
            </Array>
          </mxGeometry>
        </mxCell>
        <mxCell id="5NJUwFi0pcYqgys8b8MI-11" value="数据源1" style="text;html=1;strokeColor=none;fillColor=none;align=center;verticalAlign=middle;whiteSpace=wrap;rounded=0;strokeWidth=1;fontSize=18;" vertex="1" parent="5NJUwFi0pcYqgys8b8MI-5">
          <mxGeometry x="93" y="90" width="108.5" height="20" as="geometry" />
        </mxCell>
        <mxCell id="5NJUwFi0pcYqgys8b8MI-12" value="&lt;font style=&quot;font-size: 18px;&quot;&gt;&lt;b style=&quot;font-size: 18px;&quot;&gt;企业1&lt;/b&gt;&lt;/font&gt;" style="text;html=1;strokeColor=none;fillColor=none;align=center;verticalAlign=middle;whiteSpace=wrap;rounded=0;strokeWidth=1;fontSize=18;" vertex="1" parent="5NJUwFi0pcYqgys8b8MI-5">
          <mxGeometry width="77.5" height="20" as="geometry" />
        </mxCell>
        <mxCell id="5NJUwFi0pcYqgys8b8MI-22" value="联合模型形成" style="rounded=0;whiteSpace=wrap;html=1;strokeWidth=1;fontSize=18;" vertex="1" parent="5NJUwFi0pcYqgys8b8MI-1">
          <mxGeometry x="333.75" y="-95" width="222.5" height="30" as="geometry" />
        </mxCell>
        <mxCell id="5NJUwFi0pcYqgys8b8MI-25" value="" style="endArrow=none;dashed=1;html=1;dashPattern=1 4;strokeWidth=8;fontSize=18;" edge="1" parent="5NJUwFi0pcYqgys8b8MI-1">
          <mxGeometry width="50" height="50" relative="1" as="geometry">
            <mxPoint x="520.0000000000002" y="290" as="sourcePoint" />
            <mxPoint x="360.0000000000002" y="290" as="targetPoint" />
          </mxGeometry>
        </mxCell>
        <mxCell id="5NJUwFi0pcYqgys8b8MI-31" value="" style="group;strokeWidth=1;fontSize=18;" vertex="1" connectable="0" parent="5NJUwFi0pcYqgys8b8MI-1">
          <mxGeometry x="570" y="220" width="310" height="130" as="geometry" />
        </mxCell>
        <mxCell id="5NJUwFi0pcYqgys8b8MI-32" value="" style="rounded=0;whiteSpace=wrap;html=1;strokeWidth=1;fontSize=18;" vertex="1" parent="5NJUwFi0pcYqgys8b8MI-31">
          <mxGeometry width="310" height="130" as="geometry" />
        </mxCell>
        <mxCell id="5NJUwFi0pcYqgys8b8MI-33" value="实体对齐" style="rounded=1;whiteSpace=wrap;html=1;strokeWidth=1;fontSize=18;" vertex="1" parent="5NJUwFi0pcYqgys8b8MI-31">
          <mxGeometry x="140" y="30" width="84.75" height="30" as="geometry" />
        </mxCell>
        <mxCell id="5NJUwFi0pcYqgys8b8MI-34" value="" style="shape=cylinder3;whiteSpace=wrap;html=1;boundedLbl=1;backgroundOutline=1;size=15;strokeWidth=1;fontSize=18;" vertex="1" parent="5NJUwFi0pcYqgys8b8MI-31">
          <mxGeometry x="62" y="80" width="170.5" height="40" as="geometry" />
        </mxCell>
        <mxCell id="5NJUwFi0pcYqgys8b8MI-35" style="edgeStyle=orthogonalEdgeStyle;rounded=0;orthogonalLoop=1;jettySize=auto;html=1;fontSize=18;" edge="1" parent="5NJUwFi0pcYqgys8b8MI-31" source="5NJUwFi0pcYqgys8b8MI-36" target="5NJUwFi0pcYqgys8b8MI-33">
          <mxGeometry relative="1" as="geometry">
            <Array as="points">
              <mxPoint x="182" y="80" />
              <mxPoint x="182" y="80" />
            </Array>
          </mxGeometry>
        </mxCell>
        <mxCell id="5NJUwFi0pcYqgys8b8MI-36" value="数据源n" style="text;html=1;strokeColor=none;fillColor=none;align=center;verticalAlign=middle;whiteSpace=wrap;rounded=0;strokeWidth=1;fontSize=18;" vertex="1" parent="5NJUwFi0pcYqgys8b8MI-31">
          <mxGeometry x="93" y="90" width="108.5" height="20" as="geometry" />
        </mxCell>
        <mxCell id="5NJUwFi0pcYqgys8b8MI-46" value="" style="edgeStyle=orthogonalEdgeStyle;rounded=0;orthogonalLoop=1;jettySize=auto;html=1;fontSize=12;strokeWidth=1;" edge="1" parent="5NJUwFi0pcYqgys8b8MI-31" source="5NJUwFi0pcYqgys8b8MI-37" target="5NJUwFi0pcYqgys8b8MI-34">
          <mxGeometry relative="1" as="geometry" />
        </mxCell>
        <mxCell id="5NJUwFi0pcYqgys8b8MI-37" value="&lt;font style=&quot;font-size: 18px&quot;&gt;&lt;b style=&quot;font-size: 18px&quot;&gt;企业n&lt;/b&gt;&lt;/font&gt;" style="text;html=1;strokeColor=none;fillColor=none;align=center;verticalAlign=middle;whiteSpace=wrap;rounded=0;strokeWidth=1;fontSize=18;" vertex="1" parent="5NJUwFi0pcYqgys8b8MI-31">
          <mxGeometry width="77.5" height="20" as="geometry" />
        </mxCell>
        <mxCell id="5NJUwFi0pcYqgys8b8MI-38" value="" style="endArrow=none;dashed=1;html=1;dashPattern=1 3;strokeWidth=2;fontSize=12;exitX=1;exitY=0.5;exitDx=0;exitDy=0;entryX=0;entryY=0.5;entryDx=0;entryDy=0;" edge="1" parent="5NJUwFi0pcYqgys8b8MI-1" source="5NJUwFi0pcYqgys8b8MI-7" target="5NJUwFi0pcYqgys8b8MI-33">
          <mxGeometry width="50" height="50" relative="1" as="geometry">
            <mxPoint x="600" y="130" as="sourcePoint" />
            <mxPoint x="650" y="80" as="targetPoint" />
          </mxGeometry>
        </mxCell>
        <mxCell id="5NJUwFi0pcYqgys8b8MI-39" value="&lt;font style=&quot;font-size: 16px&quot;&gt;加密&lt;/font&gt;" style="text;html=1;strokeColor=none;fillColor=none;align=center;verticalAlign=middle;whiteSpace=wrap;rounded=0;fontSize=12;" vertex="1" parent="5NJUwFi0pcYqgys8b8MI-1">
          <mxGeometry x="425" y="250" width="40" height="20" as="geometry" />
        </mxCell>
        <mxCell id="5NJUwFi0pcYqgys8b8MI-47" value="" style="edgeStyle=orthogonalEdgeStyle;rounded=0;orthogonalLoop=1;jettySize=auto;html=1;fontSize=12;strokeWidth=1;entryX=0.513;entryY=0.976;entryDx=0;entryDy=0;entryPerimeter=0;" edge="1" parent="5NJUwFi0pcYqgys8b8MI-1" source="5NJUwFi0pcYqgys8b8MI-42" target="5NJUwFi0pcYqgys8b8MI-22">
          <mxGeometry relative="1" as="geometry">
            <Array as="points">
              <mxPoint x="448" y="80" />
              <mxPoint x="448" y="80" />
            </Array>
          </mxGeometry>
        </mxCell>
        <mxCell id="5NJUwFi0pcYqgys8b8MI-42" value="参数训练" style="rounded=0;whiteSpace=wrap;html=1;strokeWidth=1;fontSize=18;" vertex="1" parent="5NJUwFi0pcYqgys8b8MI-1">
          <mxGeometry x="323.75" y="110" width="222.5" height="30" as="geometry" />
        </mxCell>
        <mxCell id="5NJUwFi0pcYqgys8b8MI-44" value="" style="endArrow=classic;html=1;fontSize=12;strokeWidth=1;exitX=0.32;exitY=0.002;exitDx=0;exitDy=0;exitPerimeter=0;entryX=0.163;entryY=1;entryDx=0;entryDy=0;entryPerimeter=0;" edge="1" parent="5NJUwFi0pcYqgys8b8MI-1" source="5NJUwFi0pcYqgys8b8MI-8" target="5NJUwFi0pcYqgys8b8MI-42">
          <mxGeometry width="50" height="50" relative="1" as="geometry">
            <mxPoint x="360" y="80" as="sourcePoint" />
            <mxPoint x="410" y="30" as="targetPoint" />
            <Array as="points">
              <mxPoint x="77" y="190" />
              <mxPoint x="360" y="190" />
            </Array>
          </mxGeometry>
        </mxCell>
        <mxCell id="5NJUwFi0pcYqgys8b8MI-45" value="" style="endArrow=classic;html=1;fontSize=12;strokeWidth=1;entryX=0.862;entryY=1.1;entryDx=0;entryDy=0;entryPerimeter=0;exitX=0.196;exitY=0.033;exitDx=0;exitDy=0;exitPerimeter=0;" edge="1" parent="5NJUwFi0pcYqgys8b8MI-1" source="5NJUwFi0pcYqgys8b8MI-34" target="5NJUwFi0pcYqgys8b8MI-42">
          <mxGeometry width="50" height="50" relative="1" as="geometry">
            <mxPoint x="500" y="320" as="sourcePoint" />
            <mxPoint x="550" y="270" as="targetPoint" />
            <Array as="points">
              <mxPoint x="665" y="200" />
              <mxPoint x="516" y="200" />
            </Array>
          </mxGeometry>
        </mxCell>
      </root>
    </mxGraphModel>
  </diagram>
</mxfile>
